<?xml version="1.0" standalone="no"?>
<!DOCTYPE svg PUBLIC "-//W3C//DTD SVG 20010904//EN"
 "http://www.w3.org/TR/2001/REC-SVG-20010904/DTD/svg10.dtd">
<svg version="1.0" xmlns="http://www.w3.org/2000/svg"
 width="32.000000pt" height="32.000000pt" viewBox="0 0 32.000000 32.000000"
 preserveAspectRatio="xMidYMid meet">
<metadata>
Created by potrace 1.16, written by Peter Selinger 2001-2019
</metadata>
<g transform="translate(0.000000,32.000000) scale(0.100000,-0.100000)"
fill="#000000" stroke="none">
<path d="M90 313 c23 -8 70 -55 70 -69 0 -7 -14 -16 -31 -19 -27 -6 -35 -3
-54 21 -40 50 -40 17 -1 -58 40 -76 62 -106 71 -96 9 9 -17 58 -31 58 -12 0
-28 29 -20 38 10 9 96 14 96 6 0 -5 11 -27 24 -49 l24 -39 41 64 c31 50 41 75
41 108 l0 42 -122 -1 c-68 0 -116 -3 -108 -6z"/>
</g>
</svg>
