<?xml version="1.0" standalone="no"?>
<!DOCTYPE svg PUBLIC "-//W3C//DTD SVG 20010904//EN"
 "http://www.w3.org/TR/2001/REC-SVG-20010904/DTD/svg10.dtd">
<svg xmlns="http://www.w3.org/2000/svg" xmlns:xlink="http://www.w3.org/1999/xlink" aria-hidden="true" style="position: absolute; width: 0; height: 0; overflow: hidden;" version="1.1">
	<defs>
	    <symbol id="full" viewBox="0 -10 150 75">
			<g transform="translate(0.000000,46.000000) scale(0.100000,-0.100000)"
			fill="#000000" stroke="none" class="signet" style="fill: currentColor">
				<path class="cls-2" d="M0 446 c0 -10 15 -12 68 -9 59 4 71 2 102 -19 30 -20 85 -87 78 -94
				-2 -1 -27 -7 -57 -12 l-53 -10 -19 33 c-23 38 -49 53 -49 28 0 -18 72 -163
				102 -205 19 -28 48 -38 48 -17 0 19 -34 69 -46 69 -6 0 -19 11 -28 25 -19 30
				-18 30 67 43 l58 9 37 -68 c20 -38 39 -69 42 -69 3 0 31 41 63 90 54 86 57 94
				57 155 l0 65 -235 0 c-192 0 -235 -2 -235 -14z"/>
				<path class="cls-2" d="M570 363 c-45 -16 -50 -32 -50 -144 0 -105 1 -108 27 -129 18 -14 34
				-19 48 -14 11 3 37 6 58 5 l37 -1 0 74 0 75 -47 3 c-48 3 -48 3 -51 41 -2 21
				1 37 7 37 6 0 11 -11 11 -25 0 -22 4 -25 40 -25 44 0 47 7 29 58 -13 39 -66
				61 -109 45z m40 -203 c0 -16 -4 -30 -10 -30 -5 0 -10 14 -10 30 0 17 5 30 10
				30 6 0 10 -13 10 -30z"/>
				<path class="cls-2" d="M714 347 c-2 -7 -3 -69 -2 -138 l3 -124 63 -3 62 -3 0 31 c0 26 -4
				30 -26 30 -22 0 -25 4 -22 28 2 19 9 28 26 30 16 2 22 10 22 27 0 17 -6 25
				-22 27 -15 2 -24 11 -26 26 -3 18 1 22 22 22 22 0 26 4 26 30 l0 30 -60 0
				c-41 0 -62 -4 -66 -13z"/>
				<path class="cls-2" d="M870 220 l0 -140 35 0 35 0 0 60 c0 33 4 60 10 60 6 0 10 -27 10 -60
				l0 -60 36 0 36 0 -6 67 c-2 38 -5 75 -4 83 0 8 0 35 1 59 2 56 -18 71 -95 71
				l-58 0 0 -140z m90 60 c0 -10 -4 -22 -10 -25 -6 -4 -10 7 -10 25 0 18 4 29 10
				25 6 -3 10 -15 10 -25z"/>
				<path class="cls-2" d="M1060 220 l0 -140 60 0 60 0 0 30 c0 23 -4 30 -20 30 -16 0 -20 7
				-20 30 0 23 4 30 20 30 15 0 20 7 20 25 0 18 -5 25 -20 25 -15 0 -20 7 -20 25
				0 18 5 25 20 25 16 0 20 7 20 30 l0 30 -60 0 -60 0 0 -140z"/>
				<path class="cls-2" d="M1200 330 c0 -23 4 -30 20 -30 19 0 20 -7 20 -110 l0 -110 40 0 40 0
				0 110 c0 91 3 110 15 110 10 0 15 10 15 30 l0 30 -75 0 -75 0 0 -30z"/>
				<path class="cls-2" d="M0 113 l0 -113 128 0 127 0 23 36 c18 27 21 39 12 49 -9 11 -15 10
				-31 -6 -14 -14 -33 -19 -70 -19 -71 0 -110 27 -154 103 l-35 62 0 -112z"/>
			</g>
		</symbol>
		<symbol id="signet" width="32.000000pt" height="32.000000pt" viewBox="0 0 32.000000 32.000000">
	    	<g style="fill: currentColor" transform="translate(0.000000,32.000000) scale(0.10000,-0.10000)">
				<path d="M90 313 c23 -8 70 -55 70 -69 0 -7 -14 -16 -31 -19 -27 -6 -35 -3
				-54 21 -40 50 -40 17 -1 -58 40 -76 62 -106 71 -96 9 9 -17 58 -31 58 -12 0
				-28 29 -20 38 10 9 96 14 96 6 0 -5 11 -27 24 -49 l24 -39 41 64 c31 50 41 75
				41 108 l0 42 -122 -1 c-68 0 -116 -3 -108 -6z"/>
			</g>
	    </symbol>
	</defs>
</svg>
